# xmcd
#
# Track frame offsets:
#	150
#	21510
#	35733
#	57187
#	75011
#	98603
#	124646
#	147173
#	172557
#	189840
#	210888
#	235335
#	258885
#	288262
#	309445
#
# Disc length: 4396 seconds
#
# Revision: 0
# Processed by: cddbd v1.5.1PL0 Copyright (c) Steve Scherf et al.
# Submitted via: audiograbber 1.83.01
#
DISCID=b1112a0f
DTITLE=GeorgeMichael - BestOf
DYEAR=2000
DGENRE=Ballad
TTITLE0=As
TTITLE1=Faith
TTITLE2=I want Your Sex
TTITLE3=I Knew You Were Waiting
TTITLE4=Careless Whisper
TTITLE5=Don't Let The Sun Go Down On Me
TTITLE6=Jesus To A Child
TTITLE7=Father Figure
TTITLE8=Too Funky
TTITLE9=Outside
TTITLE10=Fastlove
TTITLE11=Monkey
TTITLE12=Freedom
TTITLE13=Praying For Time
TTITLE14=If I Told You That
EXTD=
EXTT0=
EXTT1=
EXTT2=
EXTT3=
EXTT4=
EXTT5=
EXTT6=
EXTT7=
EXTT8=
EXTT9=
EXTT10=
EXTT11=
EXTT12=
EXTT13=
EXTT14=
PLAYORDER=
